<?xml version="1.0" encoding="UTF-8" standalone="no"?>
<!-- Created with Inkscape (http://www.inkscape.org/) -->

<svg
   xmlns:dc="http://purl.org/dc/elements/1.1/"
   xmlns:cc="http://creativecommons.org/ns#"
   xmlns:rdf="http://www.w3.org/1999/02/22-rdf-syntax-ns#"
   xmlns:svg="http://www.w3.org/2000/svg"
   xmlns="http://www.w3.org/2000/svg"
   xmlns:xlink="http://www.w3.org/1999/xlink"
   xmlns:sodipodi="http://sodipodi.sourceforge.net/DTD/sodipodi-0.dtd"
   xmlns:inkscape="http://www.inkscape.org/namespaces/inkscape"
   width="48px"
   height="48px"
   id="svg4211"
   sodipodi:version="0.32"
   inkscape:version="0.48.3.1 r9886"
   sodipodi:docname="gtk-theme-config.svg"
   inkscape:output_extension="org.inkscape.output.svg.inkscape"
   version="1.1"
   inkscape:export-filename="/home/steinbs3/gtk-theme-config.png"
   inkscape:export-xdpi="90"
   inkscape:export-ydpi="90">
  <defs
     id="defs4213">
    <linearGradient
       id="linearGradient3191">
      <stop
         id="stop3193"
         offset="0"
         style="stop-color:#b0a647;stop-opacity:1;" />
      <stop
         id="stop3195"
         offset="1"
         style="stop-color:#a29836;stop-opacity:1;" />
    </linearGradient>
    <linearGradient
       inkscape:collect="always"
       xlink:href="#linearGradient3191"
       id="linearGradient4209"
       gradientUnits="userSpaceOnUse"
       gradientTransform="matrix(0.8962025,0,0,0.895097,6.3838665,7.2725018)"
       x1="5.5178981"
       y1="37.371799"
       x2="9.5220556"
       y2="41.391716" />
    <linearGradient
       id="linearGradient3290">
      <stop
         id="stop3292"
         offset="0"
         style="stop-color:#e4db7b;stop-opacity:1;" />
      <stop
         id="stop3294"
         offset="1"
         style="stop-color:#f4f0c8;stop-opacity:1;" />
    </linearGradient>
    <linearGradient
       inkscape:collect="always"
       xlink:href="#linearGradient3290"
       id="linearGradient4207"
       gradientUnits="userSpaceOnUse"
       gradientTransform="matrix(1.0666251,-1.0714202,1.3182293,1.3110804,-31.053059,14.688284)"
       x1="9"
       y1="29.056757"
       x2="9"
       y2="26.02973" />
    <linearGradient
       inkscape:collect="always"
       xlink:href="#linearGradient3223"
       id="linearGradient4205"
       gradientUnits="userSpaceOnUse"
       gradientTransform="matrix(1.0666251,-1.07142,1.3182293,1.3110802,-28.825289,12.450501)"
       x1="30.037716"
       y1="24.989594"
       x2="30.037716"
       y2="30.000141" />
    <linearGradient
       inkscape:collect="always"
       xlink:href="#linearGradient3240"
       id="linearGradient4203"
       gradientUnits="userSpaceOnUse"
       gradientTransform="matrix(1.0666251,-1.07142,1.3182293,1.3110802,-28.519821,12.143661)"
       x1="30.037716"
       y1="24.989594"
       x2="30.037716"
       y2="30.000141" />
    <linearGradient
       inkscape:collect="always"
       xlink:href="#linearGradient3223"
       id="linearGradient4201"
       gradientUnits="userSpaceOnUse"
       gradientTransform="matrix(1.0666251,-1.07142,1.3182293,1.3110802,-29.891913,13.521921)"
       x1="30.037716"
       y1="24.989594"
       x2="30.037716"
       y2="30.000141" />
    <linearGradient
       inkscape:collect="always"
       xlink:href="#linearGradient3240"
       id="linearGradient4199"
       gradientUnits="userSpaceOnUse"
       gradientTransform="matrix(1.0666251,-1.07142,1.3182293,1.3110802,-29.586446,13.215081)"
       x1="30.037716"
       y1="24.989594"
       x2="30.037716"
       y2="30.000141" />
    <linearGradient
       id="linearGradient3223">
      <stop
         id="stop3225"
         offset="0"
         style="stop-color:#999999;stop-opacity:1;" />
      <stop
         style="stop-color:#ffffff;stop-opacity:1;"
         offset="0.5"
         id="stop3231" />
      <stop
         id="stop3227"
         offset="1"
         style="stop-color:#777777;stop-opacity:1;" />
    </linearGradient>
    <linearGradient
       inkscape:collect="always"
       xlink:href="#linearGradient3223"
       id="linearGradient4197"
       gradientUnits="userSpaceOnUse"
       gradientTransform="matrix(1.0666251,-1.07142,1.3182293,1.3110802,-30.953407,14.588189)"
       x1="30.037716"
       y1="24.989594"
       x2="30.037716"
       y2="30.000141" />
    <linearGradient
       id="linearGradient3240">
      <stop
         style="stop-color:#3e3e3e;stop-opacity:1;"
         offset="0"
         id="stop3242" />
      <stop
         id="stop3244"
         offset="0.5"
         style="stop-color:#828282;stop-opacity:1;" />
      <stop
         style="stop-color:#3c3c3c;stop-opacity:1;"
         offset="1"
         id="stop3246" />
    </linearGradient>
    <linearGradient
       inkscape:collect="always"
       xlink:href="#linearGradient3240"
       id="linearGradient4195"
       gradientUnits="userSpaceOnUse"
       gradientTransform="matrix(1.0666251,-1.07142,1.3182293,1.3110802,-30.64794,14.281347)"
       x1="30.037716"
       y1="24.989594"
       x2="30.037716"
       y2="30.000141" />
    <linearGradient
       id="linearGradient3155">
      <stop
         id="stop3157"
         offset="0"
         style="stop-color:#000000;stop-opacity:1;" />
      <stop
         style="stop-color:#c3c3c3;stop-opacity:1;"
         offset="0.13482948"
         id="stop3171" />
      <stop
         id="stop3173"
         offset="0.20224422"
         style="stop-color:#8c8c8c;stop-opacity:1;" />
      <stop
         style="stop-color:#ffffff;stop-opacity:1;"
         offset="0.26965895"
         id="stop3163" />
      <stop
         id="stop3165"
         offset="0.44650277"
         style="stop-color:#757575;stop-opacity:1;" />
      <stop
         style="stop-color:#7d7d7d;stop-opacity:1;"
         offset="0.57114136"
         id="stop3167" />
      <stop
         id="stop3169"
         offset="0.72038066"
         style="stop-color:#b6b6b6;stop-opacity:1;" />
      <stop
         id="stop3159"
         offset="1"
         style="stop-color:#000000;stop-opacity:1;" />
    </linearGradient>
    <linearGradient
       inkscape:collect="always"
       xlink:href="#linearGradient3155"
       id="linearGradient4193"
       gradientUnits="userSpaceOnUse"
       gradientTransform="matrix(1.0976542,-1.1025887,1.1263856,1.1202772,-27.026185,19.524468)"
       spreadMethod="pad"
       x1="23.575972"
       y1="25.356892"
       x2="23.575972"
       y2="31.210939" />
    <linearGradient
       inkscape:collect="always"
       xlink:href="#linearGradient3155"
       id="linearGradient3037"
       gradientUnits="userSpaceOnUse"
       gradientTransform="matrix(1.0976542,-1.1025887,1.1263856,1.1202772,-27.026185,19.524468)"
       spreadMethod="pad"
       x1="23.575972"
       y1="25.356892"
       x2="23.575972"
       y2="31.210939" />
    <linearGradient
       inkscape:collect="always"
       xlink:href="#linearGradient3240"
       id="linearGradient3039"
       gradientUnits="userSpaceOnUse"
       gradientTransform="matrix(1.0666251,-1.07142,1.3182293,1.3110802,-30.64794,14.281347)"
       x1="30.037716"
       y1="24.989594"
       x2="30.037716"
       y2="30.000141" />
    <linearGradient
       inkscape:collect="always"
       xlink:href="#linearGradient3223"
       id="linearGradient3041"
       gradientUnits="userSpaceOnUse"
       gradientTransform="matrix(1.0666251,-1.07142,1.3182293,1.3110802,-30.953407,14.588189)"
       x1="30.037716"
       y1="24.989594"
       x2="30.037716"
       y2="30.000141" />
    <linearGradient
       inkscape:collect="always"
       xlink:href="#linearGradient3240"
       id="linearGradient3043"
       gradientUnits="userSpaceOnUse"
       gradientTransform="matrix(1.0666251,-1.07142,1.3182293,1.3110802,-29.586446,13.215081)"
       x1="30.037716"
       y1="24.989594"
       x2="30.037716"
       y2="30.000141" />
    <linearGradient
       inkscape:collect="always"
       xlink:href="#linearGradient3223"
       id="linearGradient3045"
       gradientUnits="userSpaceOnUse"
       gradientTransform="matrix(1.0666251,-1.07142,1.3182293,1.3110802,-29.891913,13.521921)"
       x1="30.037716"
       y1="24.989594"
       x2="30.037716"
       y2="30.000141" />
    <linearGradient
       inkscape:collect="always"
       xlink:href="#linearGradient3240"
       id="linearGradient3047"
       gradientUnits="userSpaceOnUse"
       gradientTransform="matrix(1.0666251,-1.07142,1.3182293,1.3110802,-28.519821,12.143661)"
       x1="30.037716"
       y1="24.989594"
       x2="30.037716"
       y2="30.000141" />
    <linearGradient
       inkscape:collect="always"
       xlink:href="#linearGradient3223"
       id="linearGradient3049"
       gradientUnits="userSpaceOnUse"
       gradientTransform="matrix(1.0666251,-1.07142,1.3182293,1.3110802,-28.825289,12.450501)"
       x1="30.037716"
       y1="24.989594"
       x2="30.037716"
       y2="30.000141" />
    <linearGradient
       inkscape:collect="always"
       xlink:href="#linearGradient3290"
       id="linearGradient3051"
       gradientUnits="userSpaceOnUse"
       gradientTransform="matrix(1.0666251,-1.0714202,1.3182293,1.3110804,-31.053059,14.688284)"
       x1="9"
       y1="29.056757"
       x2="9"
       y2="26.02973" />
    <linearGradient
       inkscape:collect="always"
       xlink:href="#linearGradient3191"
       id="linearGradient3053"
       gradientUnits="userSpaceOnUse"
       gradientTransform="matrix(0.8962025,0,0,0.895097,6.3838665,7.2725018)"
       x1="5.5178981"
       y1="37.371799"
       x2="9.5220556"
       y2="41.391716" />
    <linearGradient
       id="linearGradient10691">
      <stop
         id="stop10693"
         style="stop-color:#000000;stop-opacity:1"
         offset="0" />
      <stop
         id="stop10695"
         style="stop-color:#000000;stop-opacity:0"
         offset="1" />
    </linearGradient>
    <linearGradient
       x1="63.9995"
       y1="3.1001"
       x2="63.9995"
       y2="122.8994"
       id="linearGradient3309"
       gradientUnits="userSpaceOnUse">
      <stop
         id="stop3311"
         style="stop-color:#f6f6f6;stop-opacity:1"
         offset="0" />
      <stop
         id="stop3313"
         style="stop-color:#d2d2d2;stop-opacity:1"
         offset="1" />
    </linearGradient>
    <linearGradient
       id="linearGradient3397">
      <stop
         id="stop3399"
         style="stop-color:#aaaaaa;stop-opacity:1"
         offset="0" />
      <stop
         id="stop3401"
         style="stop-color:#8c8c8c;stop-opacity:1"
         offset="1" />
    </linearGradient>
    <linearGradient
       id="linearGradient5128">
      <stop
         id="stop5130"
         style="stop-color:#ffffff;stop-opacity:1"
         offset="0" />
      <stop
         id="stop5132"
         style="stop-color:#959595;stop-opacity:1"
         offset="1" />
    </linearGradient>
    <linearGradient
       inkscape:collect="always"
       id="linearGradient3679">
      <stop
         style="stop-color:#ffffff;stop-opacity:1;"
         offset="0"
         id="stop3681" />
      <stop
         style="stop-color:#ffffff;stop-opacity:0;"
         offset="1"
         id="stop3683" />
    </linearGradient>
    <linearGradient
       inkscape:collect="always"
       xlink:href="#linearGradient3679"
       id="linearGradient3698"
       x1="16.116789"
       y1="21.119221"
       x2="16.116789"
       y2="10.997566"
       gradientUnits="userSpaceOnUse" />
    <radialGradient
       inkscape:collect="always"
       xlink:href="#linearGradient10691-3"
       id="radialGradient3877"
       gradientUnits="userSpaceOnUse"
       gradientTransform="matrix(1.6600963,0,0,0.36315008,0.8728521,2.6414479)"
       cx="6.702713"
       cy="73.615715"
       fx="6.702713"
       fy="73.615715"
       r="7.228416" />
    <linearGradient
       id="linearGradient10691-3">
      <stop
         offset="0"
         style="stop-color:#000000;stop-opacity:1"
         id="stop10693-2" />
      <stop
         offset="1"
         style="stop-color:#000000;stop-opacity:0"
         id="stop10695-6" />
    </linearGradient>
    <linearGradient
       id="linearGradient3397-0">
      <stop
         offset="0"
         style="stop-color:#aaaaaa;stop-opacity:1"
         id="stop3399-4" />
      <stop
         offset="1"
         style="stop-color:#8c8c8c;stop-opacity:1"
         id="stop3401-0" />
    </linearGradient>
    <linearGradient
       y2="47.044857"
       x2="25.922546"
       y1="19"
       x1="25.922546"
       gradientTransform="matrix(0.77777782,0,0,0.77777782,-12.111112,-5.666669)"
       gradientUnits="userSpaceOnUse"
       id="linearGradient3616-9"
       xlink:href="#linearGradient3397-0"
       inkscape:collect="always" />
    <linearGradient
       gradientUnits="userSpaceOnUse"
       id="linearGradient3309-1"
       y2="122.8994"
       x2="63.9995"
       y1="3.1001"
       x1="63.9995">
      <stop
         offset="0"
         style="stop-color:#f6f6f6;stop-opacity:1"
         id="stop3311-5" />
      <stop
         offset="1"
         style="stop-color:#d2d2d2;stop-opacity:1"
         id="stop3313-0" />
    </linearGradient>
    <linearGradient
       y2="47.012184"
       x2="32.036148"
       y1="19"
       x1="32.036148"
       gradientTransform="matrix(0.77777782,0,0,0.77777782,-12.111112,-5.666669)"
       gradientUnits="userSpaceOnUse"
       id="linearGradient3614-2"
       xlink:href="#linearGradient3309-1"
       inkscape:collect="always" />
    <linearGradient
       id="linearGradient5128-1">
      <stop
         offset="0"
         style="stop-color:#ffffff;stop-opacity:1"
         id="stop5130-8" />
      <stop
         offset="1"
         style="stop-color:#959595;stop-opacity:1"
         id="stop5132-0" />
    </linearGradient>
    <linearGradient
       y2="20.895"
       x2="84.63858"
       y1="105.105"
       x1="86.132919"
       gradientTransform="matrix(0.15623116,0,0,0.15623125,2.0012002,10.157431)"
       gradientUnits="userSpaceOnUse"
       id="linearGradient3610"
       xlink:href="#linearGradient5128-1"
       inkscape:collect="always" />
    <linearGradient
       y2="22.006775"
       x2="12.47939"
       y1="2"
       x1="12.47939"
       gradientUnits="userSpaceOnUse"
       id="linearGradient3814"
       xlink:href="#linearGradient3805"
       inkscape:collect="always"
       gradientTransform="translate(0,8)" />
    <linearGradient
       id="linearGradient3805"
       inkscape:collect="always">
      <stop
         id="stop3807"
         offset="0"
         style="stop-color:#ffffff;stop-opacity:1;" />
      <stop
         id="stop3809"
         offset="1"
         style="stop-color:#ffffff;stop-opacity:0;" />
    </linearGradient>
    <linearGradient
       gradientUnits="userSpaceOnUse"
       y2="8"
       x2="12"
       y1="16"
       x1="12"
       id="linearGradient3830"
       xlink:href="#linearGradient3805"
       inkscape:collect="always" />
    <linearGradient
       id="linearGradient10691-34">
      <stop
         id="stop10693-9"
         style="stop-color:#000000;stop-opacity:1"
         offset="0" />
      <stop
         id="stop10695-61"
         style="stop-color:#000000;stop-opacity:0"
         offset="1" />
    </linearGradient>
    <linearGradient
       x1="63.9995"
       y1="3.1001"
       x2="63.9995"
       y2="122.8994"
       id="linearGradient3309-0"
       gradientUnits="userSpaceOnUse">
      <stop
         id="stop3311-2"
         style="stop-color:#f6f6f6;stop-opacity:1"
         offset="0" />
      <stop
         id="stop3313-6"
         style="stop-color:#d2d2d2;stop-opacity:1"
         offset="1" />
    </linearGradient>
    <linearGradient
       id="linearGradient3397-2">
      <stop
         id="stop3399-7"
         style="stop-color:#aaaaaa;stop-opacity:1"
         offset="0" />
      <stop
         id="stop3401-2"
         style="stop-color:#8c8c8c;stop-opacity:1"
         offset="1" />
    </linearGradient>
    <linearGradient
       id="linearGradient5128-8">
      <stop
         id="stop5130-9"
         style="stop-color:#ffffff;stop-opacity:1"
         offset="0" />
      <stop
         id="stop5132-2"
         style="stop-color:#959595;stop-opacity:1"
         offset="1" />
    </linearGradient>
    <linearGradient
       inkscape:collect="always"
       id="linearGradient3679-9">
      <stop
         style="stop-color:#ffffff;stop-opacity:1;"
         offset="0"
         id="stop3681-1" />
      <stop
         style="stop-color:#ffffff;stop-opacity:0;"
         offset="1"
         id="stop3683-4" />
    </linearGradient>
    <linearGradient
       inkscape:collect="always"
       xlink:href="#linearGradient3679-9"
       id="linearGradient3698-5"
       x1="16.116789"
       y1="21.119221"
       x2="16.116789"
       y2="10.997566"
       gradientUnits="userSpaceOnUse" />
    <linearGradient
       y2="10.997566"
       x2="16.116789"
       y1="21.119221"
       x1="16.116789"
       gradientUnits="userSpaceOnUse"
       id="linearGradient3153"
       xlink:href="#linearGradient3679-9"
       inkscape:collect="always" />
    <linearGradient
       inkscape:collect="always"
       xlink:href="#linearGradient3679-9"
       id="linearGradient4380"
       gradientUnits="userSpaceOnUse"
       x1="15.321168"
       y1="3"
       x2="15.321168"
       y2="29.045145"
       gradientTransform="translate(50.901548,4.4916206)" />
    <linearGradient
       inkscape:collect="always"
       xlink:href="#linearGradient5128-8"
       id="linearGradient4383"
       gradientUnits="userSpaceOnUse"
       gradientTransform="matrix(0.20430229,0,0,0.20430239,53.826194,7.6205703)"
       x1="86.132919"
       y1="105.105"
       x2="84.63858"
       y2="20.895" />
    <linearGradient
       inkscape:collect="always"
       xlink:href="#linearGradient3309-0"
       id="linearGradient4387"
       gradientUnits="userSpaceOnUse"
       gradientTransform="translate(35.901548,-12.508379)"
       x1="32.036148"
       y1="19"
       x2="32.036148"
       y2="47.012184" />
    <linearGradient
       inkscape:collect="always"
       xlink:href="#linearGradient3397-2"
       id="linearGradient4389"
       gradientUnits="userSpaceOnUse"
       gradientTransform="translate(35.901548,-12.508379)"
       x1="25.922546"
       y1="19"
       x2="25.922546"
       y2="47.044857" />
    <radialGradient
       inkscape:collect="always"
       xlink:href="#linearGradient10691-34"
       id="radialGradient4392"
       gradientUnits="userSpaceOnUse"
       gradientTransform="matrix(1.8012068,0,0,0.4143264,2.5531825,12.693228)"
       cx="6.702713"
       cy="73.615715"
       fx="6.702713"
       fy="73.615715"
       r="7.228416" />
  </defs>
  <sodipodi:namedview
     id="base"
     pagecolor="#ffffff"
     bordercolor="#666666"
     borderopacity="1.0"
     inkscape:pageopacity="0.0"
     inkscape:pageshadow="2"
     inkscape:zoom="1.2374369"
     inkscape:cx="13.058745"
     inkscape:cy="19.312927"
     inkscape:current-layer="layer1"
     showgrid="false"
     inkscape:grid-bbox="true"
     inkscape:document-units="px"
     inkscape:window-width="1244"
     inkscape:window-height="806"
     inkscape:window-x="1714"
     inkscape:window-y="0"
     inkscape:window-maximized="0">
    <inkscape:grid
       type="xygrid"
       id="grid3477" />
  </sodipodi:namedview>
  <metadata
     id="metadata4216">
    <rdf:RDF>
      <cc:Work
         rdf:about="">
        <dc:format>image/svg+xml</dc:format>
        <dc:type
           rdf:resource="http://purl.org/dc/dcmitype/StillImage" />
        <dc:title />
      </cc:Work>
    </rdf:RDF>
  </metadata>
  <g
     id="layer1"
     inkscape:label="Layer 1"
     inkscape:groupmode="layer">
    <path
       sodipodi:type="arc"
       style="fill:#47b1b1;fill-opacity:1;fill-rule:nonzero;stroke:none;stroke-width:1;marker:none;visibility:visible;display:inline;overflow:visible;enable-background:accumulate"
       id="path4121"
       sodipodi:cx="-5.7142859"
       sodipodi:cy="34"
       sodipodi:rx="3.7142856"
       sodipodi:ry="3.7142856"
       d="m -2.0000002,34 a 3.7142856,3.7142856 0 1 1 -7.4285713,0 3.7142856,3.7142856 0 1 1 7.4285713,0 z"
       transform="matrix(0.70034793,-0.6058214,0.6058214,0.70034793,-10.430153,-4.605481)" />
    <path
       sodipodi:type="arc"
       style="fill:#ff4c4c;fill-opacity:1;fill-rule:nonzero;stroke:none;stroke-width:1;marker:none;visibility:visible;display:inline;overflow:visible;enable-background:accumulate"
       id="path2964"
       sodipodi:cx="-5.7142859"
       sodipodi:cy="34"
       sodipodi:rx="3.7142856"
       sodipodi:ry="3.7142856"
       d="m -2.0000002,34 a 3.7142856,3.7142856 0 1 1 -7.4285713,0 3.7142856,3.7142856 0 1 1 7.4285713,0 z"
       transform="matrix(0.70034793,-0.6058214,0.6058214,0.70034793,22.055542,-10.472986)" />
    <path
       sodipodi:type="arc"
       style="fill:#db4cb7;fill-opacity:1;fill-rule:nonzero;stroke:none;stroke-width:1;marker:none;visibility:visible;display:inline;overflow:visible;enable-background:accumulate"
       id="path4113"
       sodipodi:cx="-5.7142859"
       sodipodi:cy="34"
       sodipodi:rx="3.7142856"
       sodipodi:ry="3.7142856"
       d="m -2.0000002,34 a 3.7142856,3.7142856 0 1 1 -7.4285713,0 3.7142856,3.7142856 0 1 1 7.4285713,0 z"
       transform="matrix(0.70034793,-0.6058214,0.6058214,0.70034793,16.221707,-17.217077)" />
    <path
       sodipodi:type="arc"
       style="fill:#924ab4;fill-opacity:1;fill-rule:nonzero;stroke:none;stroke-width:1;marker:none;visibility:visible;display:inline;overflow:visible;enable-background:accumulate"
       id="path4115"
       sodipodi:cx="-5.7142859"
       sodipodi:cy="34"
       sodipodi:rx="3.7142856"
       sodipodi:ry="3.7142856"
       d="m -2.0000002,34 a 3.7142856,3.7142856 0 1 1 -7.4285713,0 3.7142856,3.7142856 0 1 1 7.4285713,0 z"
       transform="matrix(0.70034793,-0.6058214,0.6058214,0.70034793,7.76589,-20.177152)" />
    <path
       sodipodi:type="arc"
       style="fill:#6c48b3;fill-opacity:1;fill-rule:nonzero;stroke:none;stroke-width:1;marker:none;visibility:visible;display:inline;overflow:visible;enable-background:accumulate"
       id="path4117"
       sodipodi:cx="-5.7142859"
       sodipodi:cy="34"
       sodipodi:rx="3.7142856"
       sodipodi:ry="3.7142856"
       d="m -2.0000002,34 a 3.7142856,3.7142856 0 1 1 -7.4285713,0 3.7142856,3.7142856 0 1 1 7.4285713,0 z"
       transform="matrix(0.70034793,-0.6058214,0.6058214,0.70034793,-0.835332,-18.632108)" />
    <path
       sodipodi:type="arc"
       style="fill:#476bd7;fill-opacity:1;fill-rule:nonzero;stroke:none;stroke-width:1;marker:none;visibility:visible;display:inline;overflow:visible;enable-background:accumulate"
       id="path4119"
       sodipodi:cx="-5.7142859"
       sodipodi:cy="34"
       sodipodi:rx="3.7142856"
       sodipodi:ry="3.7142856"
       d="m -2.0000002,34 a 3.7142856,3.7142856 0 1 1 -7.4285713,0 3.7142856,3.7142856 0 1 1 7.4285713,0 z"
       transform="matrix(0.70034793,-0.6058214,0.6058214,0.70034793,-7.579423,-12.798272)" />
    <path
       sodipodi:type="arc"
       style="fill:#4cdb4c;fill-opacity:1;fill-rule:nonzero;stroke:none;stroke-width:1;marker:none;visibility:visible;display:inline;overflow:visible;enable-background:accumulate"
       id="path4123"
       sodipodi:cx="-5.7142859"
       sodipodi:cy="34"
       sodipodi:rx="3.7142856"
       sodipodi:ry="3.7142856"
       d="m -2.0000002,34 a 3.7142856,3.7142856 0 1 1 -7.4285713,0 3.7142856,3.7142856 0 1 1 7.4285713,0 z"
       transform="matrix(0.70034793,-0.6058214,0.6058214,0.70034793,-8.801767,4.092088)" />
    <path
       style="opacity:0.15;fill:url(#radialGradient4392);fill-opacity:1;fill-rule:nonzero;stroke:none;stroke-width:0.80000000999999998;marker:none;visibility:visible;display:inline;overflow:visible"
       id="path10689-6"
       d="m 27.646024,43.194162 c 0,1.654051 -5.829195,2.994924 -13.01987,2.994924 -7.1906769,0 -13.0198709,-1.340873 -13.0198709,-2.994924 0,-1.65405 5.829194,-2.994924 13.0198709,-2.994924 7.190675,0 13.01987,1.340874 13.01987,2.994924 z"
       inkscape:connector-curvature="0" />
    <path
       sodipodi:type="arc"
       style="fill:#b7ff4c;fill-opacity:1;fill-rule:nonzero;stroke:none;stroke-width:1;marker:none;visibility:visible;display:inline;overflow:visible;enable-background:accumulate"
       id="path4125"
       sodipodi:cx="-5.7142859"
       sodipodi:cy="34"
       sodipodi:rx="3.7142856"
       sodipodi:ry="3.7142856"
       d="m -2.0000002,34 a 3.7142856,3.7142856 0 1 1 -7.4285713,0 3.7142856,3.7142856 0 1 1 7.4285713,0 z"
       transform="matrix(0.70034793,-0.6058214,0.6058214,0.70034793,-3.24396,10.906515)" />
    <g
       transform="translate(20.999865,14)"
       inkscape:label="Layer 1"
       id="layer1-4">
      <path
         d="M 23.999865,29.375 C 23.999865,30.824748 18.627342,32 12,32 5.3726571,32 1.348125e-4,30.824748 1.348125e-4,29.375 1.348125e-4,27.925253 5.3726571,26.75 12,26.75 c 6.627342,0 11.999865,1.175253 11.999865,2.625 z"
         id="path10689"
         style="opacity:0.2;fill:url(#radialGradient3877);fill-opacity:1;fill-rule:nonzero;stroke:none;stroke-width:0.80000001;marker:none;visibility:visible;display:inline;overflow:visible"
         inkscape:connector-curvature="0" />
      <path
         id="rect3623"
         d="m 10.5,9.5 c -0.554,0 -1,0.446 -1,1 l 0,1.375 C 8.9926705,12.030783 8.4932312,12.225474 8.03125,12.46875 L 7.0625,11.5 C 6.6707628,11.108263 6.0167372,11.108263 5.625,11.5 L 3.5,13.625 c -0.3917372,0.391737 -0.3917372,1.045763 0,1.4375 l 0.96875,0.96875 C 4.2254741,16.493231 4.0307828,16.99267 3.875,17.5 l -1.375,0 c -0.554,0 -1,0.446 -1,1 l 0,3 c 0,0.554 0.446,1 1,1 l 1.375,0 c 0.1557828,0.507329 0.3504741,1.006769 0.59375,1.46875 L 3.5,24.9375 c -0.3917372,0.391737 -0.3917372,1.045763 0,1.4375 L 5.625,28.5 c 0.3917372,0.391737 1.0457628,0.391737 1.4375,0 L 8.03125,27.53125 C 8.4932312,27.774526 8.9926705,27.969217 9.5,28.125 l 0,1.375 c 0,0.554 0.446,1 1,1 l 3,0 c 0.554,0 1,-0.446 1,-1 l 0,-1.375 c 0.507329,-0.155783 1.006769,-0.350474 1.46875,-0.59375 L 16.9375,28.5 c 0.391737,0.391737 1.045763,0.391737 1.4375,0 L 20.5,26.375 c 0.391737,-0.391737 0.391737,-1.045763 0,-1.4375 L 19.53125,23.96875 C 19.774526,23.506769 19.969217,23.007329 20.125,22.5 l 1.375,0 c 0.554,0 1,-0.446 1,-1 l 0,-3 c 0,-0.554 -0.446,-1 -1,-1 l -1.375,0 C 19.969217,16.99267 19.774526,16.493231 19.53125,16.03125 L 20.5,15.0625 c 0.391737,-0.391737 0.391737,-1.045763 0,-1.4375 L 18.375,11.5 c -0.391737,-0.391737 -1.045763,-0.391737 -1.4375,0 l -0.96875,0.96875 C 15.506769,12.225474 15.007329,12.030783 14.5,11.875 l 0,-1.375 c 0,-0.554 -0.446,-1 -1,-1 l -3,0 z m 1.5,8 c 1.380712,0 2.5,1.119288 2.5,2.5 0,1.380712 -1.119288,2.5 -2.5,2.5 -1.380712,0 -2.5,-1.119288 -2.5,-2.5 0,-1.380712 1.119288,-2.5 2.5,-2.5 z"
         style="color:#000000;fill:url(#linearGradient3614-2);fill-opacity:1;fill-rule:nonzero;stroke:url(#linearGradient3616-9);stroke-width:1;stroke-linecap:butt;stroke-linejoin:round;stroke-miterlimit:4;stroke-opacity:1;stroke-dasharray:none;stroke-dashoffset:0;marker:none;visibility:visible;display:block;overflow:visible;enable-background:accumulate"
         inkscape:connector-curvature="0" />
      <path
         id="path3315"
         d="m 12,14 c -3.310303,0 -6,2.689698 -6,6 0,3.310302 2.689697,6 6,6 3.310301,0 6,-2.689698 6,-6 0,-3.310302 -2.689699,-6 -6,-6 z m 0,3 c 1.656854,0 3,1.343146 3,3 0,1.656854 -1.343146,3 -3,3 -1.656854,0 -3,-1.343146 -3,-3 0,-1.656854 1.343146,-3 3,-3 z"
         style="opacity:0.05;fill:#000000;fill-opacity:1;stroke:none"
         inkscape:connector-curvature="0" />
      <path
         d="m 12,13.499999 c -3.5841018,0 -6.5,2.9159 -6.5,6.499999 C 5.5,23.5841 8.4158982,26.5 12,26.5 c 3.584101,0 6.5,-2.9159 6.5,-6.500002 0,-3.584099 -2.915899,-6.499999 -6.5,-6.499999 z"
         id="path28"
         style="fill:none;stroke:url(#linearGradient3610);stroke-width:1;stroke-miterlimit:4;stroke-dasharray:none"
         inkscape:connector-curvature="0" />
      <path
         sodipodi:nodetypes="ccccccccccccccscccccccccscccccccccsccccccc"
         id="path3799"
         d="m 10.5,10.46875 c -0.07417,0.388719 -0.0095,0.901108 -0.03125,1.336433 0.06469,0.778079 -0.7702767,1.052854 -1.3682852,1.21661 -0.5470235,0.311236 -1.3489947,0.671898 -1.8369673,0.0542 C 6.9673317,12.779832 6.6711658,12.483666 6.375,12.1875 5.9432707,12.474172 5.5902425,12.950845 5.1889654,13.311035 4.8695012,13.671637 4.4334278,13.983938 4.1875,14.375 c 0.4070204,0.490131 1.0485159,0.837591 1.225798,1.476969 -0.024664,0.798464 -0.5401599,1.529218 -0.8123879,2.267025 -0.5018209,0.56435 -1.3150413,0.280668 -1.9743456,0.349756 -0.3445673,-0.01288 -0.070329,0.586347 -0.1578145,0.825709 0.00121,0.744981 -0.0024,1.490108 0.00179,2.234998 0.6455598,0.06419 1.3569859,-0.150581 1.9454937,0.179668 0.5556121,0.579212 0.6756354,1.474124 1.0067725,2.188766 0.04177,0.75274 -0.7323134,1.126431 -1.1493366,1.641136 -0.2173877,0.272406 0.385277,0.504146 0.5159207,0.750367 0.5077022,0.507702 1.0154043,1.015404 1.5231065,1.523106 0.5224633,-0.304869 0.8397278,-0.98896 1.4454346,-1.204942 0.8151392,-0.106648 1.5136871,0.546448 2.2838276,0.733976 0.650694,0.452082 0.363529,1.310427 0.426988,1.975154 -0.08851,0.418476 0.527859,0.12987 0.768962,0.214562 0.763896,-0.0012 1.527939,0.0024 2.291745,-0.0018 0.06419,-0.64556 -0.150581,-1.356986 0.179668,-1.945494 0.579212,-0.555612 1.474124,-0.675635 2.188766,-1.006772 0.75274,-0.04177 1.126431,0.732313 1.641136,1.149336 0.272406,0.217388 0.504146,-0.385277 0.750367,-0.515921 0.507702,-0.507702 1.015404,-1.015404 1.523106,-1.523106 -0.304869,-0.522463 -0.98896,-0.839728 -1.204942,-1.445435 -0.106648,-0.815139 0.546448,-1.513687 0.733976,-2.283827 0.452082,-0.650694 1.310427,-0.363529 1.975154,-0.426988 0.418476,0.08851 0.12987,-0.527859 0.214562,-0.768962 -0.0012,-0.763896 0.0024,-1.527939 -0.0018,-2.291745 -0.64556,-0.06419 -1.356986,0.150581 -1.945494,-0.179668 -0.555602,-0.579205 -0.675625,-1.474117 -1.006762,-2.188759 -0.04177,-0.75274 0.732313,-1.126431 1.149336,-1.641136 0.217388,-0.272406 -0.385277,-0.504146 -0.515921,-0.750366 -0.507702,-0.507703 -1.015404,-1.015405 -1.523106,-1.523107 -0.522463,0.304869 -0.839728,0.98896 -1.445435,1.204942 -0.815139,0.106648 -1.513687,-0.546448 -2.283827,-0.733976 -0.650694,-0.452082 -0.363529,-1.310427 -0.426988,-1.975154 0.08851,-0.418476 -0.527859,-0.12987 -0.768962,-0.214562 -0.754096,0 -1.508192,0 -2.262288,0 z"
         style="opacity:0.8;color:#000000;fill:none;stroke:url(#linearGradient3814);stroke-width:1;stroke-linecap:butt;stroke-linejoin:round;stroke-miterlimit:4;stroke-opacity:1;stroke-dasharray:none;stroke-dashoffset:0;marker:none;visibility:visible;display:block;overflow:visible;enable-background:accumulate"
         inkscape:connector-curvature="0" />
      <path
         transform="matrix(1.0116033,0,0,1.0116033,-0.13923977,7.8607606)"
         d="m 15.459854,12 c 0,1.910825 -1.549029,3.459854 -3.459854,3.459854 -1.910825,0 -3.4598541,-1.549029 -3.4598541,-3.459854 0,-1.910825 1.5490291,-3.4598541 3.4598541,-3.4598541 1.910825,0 3.459854,1.5490291 3.459854,3.4598541 z"
         sodipodi:ry="3.4598541"
         sodipodi:rx="3.4598541"
         sodipodi:cy="12"
         sodipodi:cx="12"
         id="path3822"
         style="opacity:0.4;color:#000000;fill:none;stroke:url(#linearGradient3830);stroke-width:0.98852974;stroke-opacity:1;marker:none;visibility:visible;display:block;overflow:visible;enable-background:accumulate"
         sodipodi:type="arc" />
    </g>
    <path
       sodipodi:type="arc"
       style="fill:#924ab4;fill-opacity:1;stroke:none"
       id="path4416"
       sodipodi:cx="12.424876"
       sodipodi:cy="-7.7604203"
       sodipodi:rx="9.3944187"
       sodipodi:ry="13.131983"
       d="m 21.819295,-7.7604203 a 9.3944187,13.131983 0 0 1 -0.640408,4.7654971 l -8.754011,-4.7654971 z"
       sodipodi:start="0"
       sodipodi:end="0.37137005"
       transform="matrix(-0.15787959,-1.1586587,1.1586587,-0.15787959,33.920252,32.761422)"
       inkscape:transform-center-x="2.815043"
       inkscape:transform-center-y="5.4313655" />
    <path
       inkscape:transform-center-y="2.2746062"
       inkscape:transform-center-x="4.5956404"
       transform="matrix(0.45361298,-1.0777993,1.0777993,0.45361298,27.962098,37.059909)"
       sodipodi:end="0.37137005"
       sodipodi:start="0"
       d="m 21.819295,-7.7604203 a 9.3944187,13.131983 0 0 1 -0.640408,4.7654971 l -8.754011,-4.7654971 z"
       sodipodi:ry="13.131983"
       sodipodi:rx="9.3944187"
       sodipodi:cy="-7.7604203"
       sodipodi:cx="12.424876"
       id="path4418"
       style="fill:#db4cb7;fill-opacity:1;stroke:none"
       sodipodi:type="arc" />
    <path
       sodipodi:type="arc"
       style="fill:#ff4c4c;fill-opacity:1;stroke:none"
       id="path4420"
       sodipodi:cx="12.424876"
       sodipodi:cy="-7.7604203"
       sodipodi:rx="9.3944187"
       sodipodi:ry="13.131983"
       d="m 21.819295,-7.7604203 a 9.3944187,13.131983 0 0 1 -0.640408,4.7654971 l -8.754011,-4.7654971 z"
       sodipodi:start="0"
       sodipodi:end="0.37137005"
       transform="matrix(0.93754332,-0.69887663,0.69887663,0.93754332,20.945724,37.575509)"
       inkscape:transform-center-x="5.8375153"
       inkscape:transform-center-y="-1.5989253" />
    <path
       inkscape:transform-center-y="5.8139734"
       inkscape:transform-center-x="1.4165813"
       transform="matrix(-0.72232288,-0.91960083,0.91960083,-0.72232288,36.813457,25.494276)"
       sodipodi:end="0.37137005"
       sodipodi:start="0"
       d="m 21.819295,-7.7604203 a 9.3944187,13.131983 0 0 1 -0.640408,4.7654971 l -8.754011,-4.7654971 z"
       sodipodi:ry="13.131983"
       sodipodi:rx="9.3944187"
       sodipodi:cy="-7.7604203"
       sodipodi:cx="12.424876"
       id="path4422"
       style="fill:#6c48b3;fill-opacity:1;stroke:none"
       sodipodi:type="arc" />
    <path
       sodipodi:type="arc"
       style="fill:#476bd7;fill-opacity:1;stroke:none"
       id="path4424"
       sodipodi:cx="12.424876"
       sodipodi:cy="-7.7604203"
       sodipodi:rx="9.3944187"
       sodipodi:ry="13.131983"
       d="m 21.819295,-7.7604203 a 9.3944187,13.131983 0 0 1 -0.640408,4.7654971 l -8.754011,-4.7654971 z"
       sodipodi:start="0"
       sodipodi:end="0.37137005"
       transform="matrix(-1.1141807,-0.35498926,0.35498926,-1.1141807,36.180447,16.977929)"
       inkscape:transform-center-x="-2.8957066"
       inkscape:transform-center-y="4.2447449" />
    <path
       inkscape:transform-center-y="2.8027784"
       inkscape:transform-center-x="-5.6310367"
       transform="matrix(-1.1450663,0.237148,-0.237148,-1.1450663,31.231647,11.478999)"
       sodipodi:end="0.37137005"
       sodipodi:start="0"
       d="m 21.819295,-7.7604203 a 9.3944187,13.131983 0 0 1 -0.640408,4.7654971 l -8.754011,-4.7654971 z"
       sodipodi:ry="13.131983"
       sodipodi:rx="9.3944187"
       sodipodi:cy="-7.7604203"
       sodipodi:cx="12.424876"
       id="path4426"
       style="fill:#47b1b1;fill-opacity:1;stroke:none"
       sodipodi:type="arc" />
    <path
       sodipodi:type="arc"
       style="fill:#4cdb4c;fill-opacity:1;stroke:none"
       id="path4428"
       sodipodi:cx="12.424876"
       sodipodi:cy="-7.7604203"
       sodipodi:rx="9.3944187"
       sodipodi:ry="13.131983"
       d="m 21.819295,-7.7604203 a 9.3944187,13.131983 0 0 1 -0.640408,4.7654971 l -8.754011,-4.7654971 z"
       sodipodi:start="0"
       sodipodi:end="0.37137005"
       transform="matrix(-0.86367867,0.78833695,-0.78833695,-0.86367867,23.609897,8.8926123)"
       inkscape:transform-center-x="-5.7236903"
       inkscape:transform-center-y="0.87736569" />
    <path
       inkscape:transform-center-y="-3.0851372"
       inkscape:transform-center-x="-4.1279737"
       transform="matrix(-0.32355899,1.1237106,-1.1237106,-0.32355899,15.176235,10.854498)"
       sodipodi:end="0.37137005"
       sodipodi:start="0"
       d="m 21.819295,-7.7604203 a 9.3944187,13.131983 0 0 1 -0.640408,4.7654971 l -8.754011,-4.7654971 z"
       sodipodi:ry="13.131983"
       sodipodi:rx="9.3944187"
       sodipodi:cy="-7.7604203"
       sodipodi:cx="12.424876"
       id="path4430"
       style="fill:#b7ff4c;fill-opacity:1;stroke:none"
       sodipodi:type="arc" />
  </g>
</svg>
